<svg xmlns="http://www.w3.org/2000/svg" viewBox="0 0 512 512" width="512" height="512">
  <defs>
    <linearGradient id="orangeGrad" x1="0%" y1="0%" x2="100%" y2="100%">
      <stop offset="0%" stop-color="#FFA033" />
      <stop offset="100%" stop-color="#FF6B00" />
    </linearGradient>
    <linearGradient id="orangeShadowGrad" x1="0%" y1="0%" x2="100%" y2="100%">
      <stop offset="0%" stop-color="#E05500" />
      <stop offset="100%" stop-color="#B83A00" />
    </linearGradient>
    <linearGradient id="bgGrad" x1="0%" y1="0%" x2="100%" y2="100%">
      <stop offset="0%" stop-color="#1A1B20" />
      <stop offset="100%" stop-color="#121316" />
    </linearGradient>
    <filter id="favGlow" x="-20%" y="-20%" width="140%" height="140%">
      <feDropShadow dx="0" dy="6" stdDeviation="12" flood-color="#FF6B00" flood-opacity="0.35" />
    </filter>
  </defs>

  <!-- Dark Background Squircle -->
  <rect x="24" y="24" width="464" height="464" rx="110" fill="url(#bgGrad)" stroke="#FF7A00" stroke-width="18" />

  <!-- Center Content -->
  <g transform="translate(68, 62) scale(2.4)">
    <!-- Tap Ripple Arc 1 (Outer) -->
    <path d="M 32 46 A 42 42 0 0 1 92 14" fill="none" stroke="url(#orangeGrad)" stroke-width="8" stroke-linecap="round" />
    <!-- Tap Ripple Arc 2 (Inner) -->
    <path d="M 44 54 A 26 26 0 0 1 82 32" fill="none" stroke="url(#orangeGrad)" stroke-width="7.5" stroke-linecap="round" />

    <!-- Cursor Pointer Arrow -->
    <path d="M 60 52 L 130 122 L 100 122 L 112 154 L 94 160 L 80 130 L 60 148 Z" fill="url(#orangeGrad)" filter="url(#favGlow)" />
    <path d="M 60 52 L 130 122 L 100 122 L 112 154 L 94 160 Z" fill="url(#orangeShadowGrad)" opacity="0.45" />
  </g>
</svg>